<svg viewBox="0 0 1200 630" xmlns="http://www.w3.org/2000/svg" width="1200" height="630">
  <rect width="1200" height="630" fill="#0f1117"/>
  <rect x="-30" y="-30" width="180" height="240" rx="18" fill="#1a1f2e" transform="rotate(-15 60 90)"/>
  <rect x="1060" y="420" width="180" height="240" rx="18" fill="#1a1f2e" transform="rotate(12 1150 540)"/>
  <rect x="980" y="-60" width="160" height="220" rx="16" fill="#1a1f2e" transform="rotate(20 1060 50)"/>
  <rect x="-60" y="440" width="160" height="220" rx="16" fill="#1a1f2e" transform="rotate(-10 20 550)"/>
  <text x="80" y="160" font-size="90" fill="#ffffff08" font-family="serif" text-anchor="middle">&#9824;</text>
  <text x="1120" y="200" font-size="80" fill="#ffffff08" font-family="serif" text-anchor="middle">&#9829;</text>
  <text x="1100" y="500" font-size="70" fill="#ffffff08" font-family="serif" text-anchor="middle">&#9830;</text>
  <text x="100" y="520" font-size="75" fill="#ffffff08" font-family="serif" text-anchor="middle">&#9827;</text>
  <rect x="0" y="0" width="1200" height="5" fill="#6c63ff"/>
  <rect x="540" y="60" width="120" height="160" rx="14" fill="#1e2230" stroke="#6c63ff" stroke-width="2"/>
  <text x="600" y="165" font-size="80" font-family="serif" text-anchor="middle" fill="#6c63ff">&#127183;</text>
  <text x="600" y="285" font-size="72" font-weight="700" font-family="system-ui, Arial, sans-serif" text-anchor="middle" fill="#ffffff">Rummys</text>
  <text x="600" y="345" font-size="32" font-family="system-ui, Arial, sans-serif" text-anchor="middle" fill="#9ca3af">La prueba de que s&#237; perdiste</text>
  <line x1="440" y1="375" x2="760" y2="375" stroke="#2d3348" stroke-width="2"/>
  <rect x="200" y="410" width="200" height="70" rx="10" fill="#1a1f2e"/>
  <text x="300" y="438" font-size="14" font-family="system-ui, Arial, sans-serif" text-anchor="middle" fill="#6c63ff">PRIMERO</text>
  <text x="300" y="466" font-size="26" font-weight="700" font-family="system-ui, Arial, sans-serif" text-anchor="middle" fill="#ffffff">+4 pts</text>
  <rect x="420" y="410" width="200" height="70" rx="10" fill="#1a1f2e"/>
  <text x="520" y="438" font-size="14" font-family="system-ui, Arial, sans-serif" text-anchor="middle" fill="#22c55e">SEGUNDO</text>
  <text x="520" y="466" font-size="26" font-weight="700" font-family="system-ui, Arial, sans-serif" text-anchor="middle" fill="#ffffff">+2 pts</text>
  <rect x="640" y="410" width="200" height="70" rx="10" fill="#1a1f2e"/>
  <text x="740" y="438" font-size="14" font-family="system-ui, Arial, sans-serif" text-anchor="middle" fill="#ef4444">&#218;LTIMO</text>
  <text x="740" y="466" font-size="26" font-weight="700" font-family="system-ui, Arial, sans-serif" text-anchor="middle" fill="#ffffff">&#8722;1 pts</text>
  <text x="600" y="540" font-size="22" font-family="system-ui, Arial, sans-serif" text-anchor="middle" fill="#4b5563">Tabla general &#183; Historial &#183; Estad&#237;sticas</text>
  <text x="600" y="580" font-size="18" font-family="system-ui, Arial, sans-serif" text-anchor="middle" fill="#374151">Porque la memoria falla, pero la base de datos no.</text>
  <rect x="0" y="625" width="1200" height="5" fill="#6c63ff"/>
</svg>
